<?xml version="1.0" encoding="UTF-8" standalone="no"?><svg xmlns="http://www.w3.org/2000/svg" xmlns:xlink="http://www.w3.org/1999/xlink" contentScriptType="application/ecmascript" contentStyleType="text/css" height="630px" preserveAspectRatio="none" style="width:930px;height:630px;" version="1.1" viewBox="0 0 930 630" width="930px" zoomAndPan="magnify"><defs/><g><!--cluster long1--><rect fill="#FEFECE" height="159" rx="12.5" ry="12.5" style="stroke: #A80036; stroke-width: 1.5;" width="785" x="30" y="114"/><rect fill="#FFFFFF" height="126.7031" rx="12.5" ry="12.5" style="stroke: #FFFFFF; stroke-width: 1.0;" width="779" x="33" y="143.2969"/><line style="stroke: #A80036; stroke-width: 1.5;" x1="30" x2="815" y1="140.2969" y2="140.2969"/><text fill="#000000" font-family="sans-serif" font-size="14" lengthAdjust="spacingAndGlyphs" textLength="76" x="384.5" y="130.9951">PR is Open</text><!--cluster long2--><rect fill="#FEFECE" height="91" rx="12.5" ry="12.5" style="stroke: #A80036; stroke-width: 1.5;" width="209" x="250" y="442"/><rect fill="#FFFFFF" height="58.7031" rx="12.5" ry="12.5" style="stroke: #FFFFFF; stroke-width: 1.0;" width="203" x="253" y="471.2969"/><line style="stroke: #A80036; stroke-width: 1.5;" x1="250" x2="459" y1="468.2969" y2="468.2969"/><text fill="#000000" font-family="sans-serif" font-size="14" lengthAdjust="spacingAndGlyphs" textLength="86" x="311.5" y="458.9951">PR is Closed</text><!--cluster long3--><rect fill="#FEFECE" height="129" rx="12.5" ry="12.5" style="stroke: #A80036; stroke-width: 1.5;" width="435" x="483" y="423"/><rect fill="#FFFFFF" height="96.7031" rx="12.5" ry="12.5" style="stroke: #FFFFFF; stroke-width: 1.0;" width="429" x="486" y="452.2969"/><line style="stroke: #A80036; stroke-width: 1.5;" x1="483" x2="918" y1="449.2969" y2="449.2969"/><text fill="#000000" font-family="sans-serif" font-size="14" lengthAdjust="spacingAndGlyphs" textLength="91" x="655" y="439.9951">PR is Merged</text><rect fill="#FEFECE" height="92.1719" rx="12.5" ry="12.5" style="stroke: #A80036; stroke-width: 1.5;" width="192" x="73" y="157"/><line style="stroke: #A80036; stroke-width: 1.5;" x1="73" x2="265" y1="183.2969" y2="183.2969"/><text fill="#000000" font-family="sans-serif" font-size="14" lengthAdjust="spacingAndGlyphs" textLength="31" x="153.5" y="174.9951">draft</text><ellipse cx="83.5" cy="194.7656" fill="#000000" rx="2.5" ry="2.5" style="stroke: #000000; stroke-width: 0.0;"/><text fill="#000000" font-family="sans-serif" font-size="12" lengthAdjust="spacingAndGlyphs" textLength="84" x="89" y="199.4355">tag sub-team</text><ellipse cx="83.5" cy="208.7344" fill="#000000" rx="2.5" ry="2.5" style="stroke: #000000; stroke-width: 0.0;"/><text fill="#000000" font-family="sans-serif" font-size="12" lengthAdjust="spacingAndGlyphs" textLength="105" x="89" y="213.4043">assign shepherd</text><ellipse cx="83.5" cy="222.7031" fill="#000000" rx="2.5" ry="2.5" style="stroke: #000000; stroke-width: 0.0;"/><text fill="#000000" font-family="sans-serif" font-size="12" lengthAdjust="spacingAndGlyphs" textLength="161" x="89" y="227.373">feedback from community</text><ellipse cx="83.5" cy="236.6719" fill="#000000" rx="2.5" ry="2.5" style="stroke: #000000; stroke-width: 0.0;"/><text fill="#000000" font-family="sans-serif" font-size="12" lengthAdjust="spacingAndGlyphs" textLength="121" x="89" y="241.3418">iterate on proposal</text><rect fill="#FEFECE" height="78.2031" rx="12.5" ry="12.5" style="stroke: #A80036; stroke-width: 1.5;" width="310" x="481" y="164"/><line style="stroke: #A80036; stroke-width: 1.5;" x1="481" x2="791" y1="190.2969" y2="190.2969"/><text fill="#000000" font-family="sans-serif" font-size="14" lengthAdjust="spacingAndGlyphs" textLength="27" x="622.5" y="181.9951">FCP</text><ellipse cx="491.5" cy="201.7656" fill="#000000" rx="2.5" ry="2.5" style="stroke: #000000; stroke-width: 0.0;"/><text fill="#000000" font-family="sans-serif" font-size="12" lengthAdjust="spacingAndGlyphs" textLength="279" x="497" y="206.4355">include disposition to merge/close/postpone</text><ellipse cx="491.5" cy="215.7344" fill="#000000" rx="2.5" ry="2.5" style="stroke: #000000; stroke-width: 0.0;"/><text fill="#000000" font-family="sans-serif" font-size="12" lengthAdjust="spacingAndGlyphs" textLength="191" x="497" y="220.4043">final feedback from community</text><ellipse cx="491.5" cy="229.7031" fill="#000000" rx="2.5" ry="2.5" style="stroke: #000000; stroke-width: 0.0;"/><text fill="#000000" font-family="sans-serif" font-size="12" lengthAdjust="spacingAndGlyphs" textLength="160" x="497" y="234.373">final touches on proposal</text><rect fill="#FEFECE" height="40" rx="12.5" ry="12.5" style="stroke: #A80036; stroke-width: 1.5;" width="56" x="387" y="477"/><text fill="#000000" font-family="sans-serif" font-size="14" lengthAdjust="spacingAndGlyphs" textLength="46" x="392" y="501.8467">closed</text><rect fill="#FEFECE" height="40" rx="12.5" ry="12.5" style="stroke: #A80036; stroke-width: 1.5;" width="86" x="266" y="477"/><text fill="#000000" font-family="sans-serif" font-size="14" lengthAdjust="spacingAndGlyphs" textLength="76" x="271" y="501.8467">postponed</text><rect fill="#FEFECE" height="78.2031" rx="12.5" ry="12.5" style="stroke: #A80036; stroke-width: 1.5;" width="274" x="499" y="458"/><line style="stroke: #A80036; stroke-width: 1.5;" x1="499" x2="773" y1="484.2969" y2="484.2969"/><text fill="#000000" font-family="sans-serif" font-size="14" lengthAdjust="spacingAndGlyphs" textLength="40" x="616" y="475.9951">active</text><ellipse cx="509.5" cy="495.7656" fill="#000000" rx="2.5" ry="2.5" style="stroke: #000000; stroke-width: 0.0;"/><text fill="#000000" font-family="sans-serif" font-size="12" lengthAdjust="spacingAndGlyphs" textLength="120" x="515" y="500.4355">assign RFC number</text><ellipse cx="509.5" cy="509.7344" fill="#000000" rx="2.5" ry="2.5" style="stroke: #000000; stroke-width: 0.0;"/><text fill="#000000" font-family="sans-serif" font-size="12" lengthAdjust="spacingAndGlyphs" textLength="236" x="515" y="514.4043">create tracking issue in relevant repo</text><ellipse cx="509.5" cy="523.7031" fill="#000000" rx="2.5" ry="2.5" style="stroke: #000000; stroke-width: 0.0;"/><text fill="#000000" font-family="sans-serif" font-size="12" lengthAdjust="spacingAndGlyphs" textLength="243" x="515" y="528.373">make note if superseded by a new RFC</text><ellipse cx="38" cy="18" fill="#000000" rx="10" ry="10" style="stroke: none; stroke-width: 1.0;"/><rect fill="#000000" height="8" style="stroke: none; stroke-width: 1.0;" width="80" x="399" y="340"/><rect fill="#000000" height="8" style="stroke: none; stroke-width: 1.0;" width="80" x="279" y="340"/><ellipse cx="415" cy="609" fill="none" rx="10" ry="10" style="stroke: #000000; stroke-width: 1.0;"/><ellipse cx="415.5" cy="609.5" fill="#000000" rx="6" ry="6" style="stroke: none; stroke-width: 1.0;"/><!--link *start to long1--><path d="M38,28.075 C38,37.1623 38,52.3101 38,69.9853 C38,78.8229 38,88.2924 38,97.952 C38,102.7818 38,107.6591 38,112.5288 C38,112.8331 38,113.1375 38,113.4418 " fill="none" id="*start-long1" style="stroke: #A80036; stroke-width: 1.0;"/><polygon fill="#A80036" points="38,113.4418,42,104.4418,38,108.4418,34,104.4418,38,113.4418" style="stroke: #A80036; stroke-width: 1.0;"/><text fill="#000000" font-family="sans-serif" font-size="13" lengthAdjust="spacingAndGlyphs" textLength="52" x="90.5" y="71.0669">[author]</text><text fill="#000000" font-family="sans-serif" font-size="13" lengthAdjust="spacingAndGlyphs" textLength="155" x="39" y="86.1997">Submit a PR to /grin-rfcs</text><!--link draft to FCP--><path d="M265.196,203 C325.821,203 405.597,203 475.617,203 " fill="none" id="draft-FCP" style="stroke: #A80036; stroke-width: 1.0;"/><polygon fill="#A80036" points="480.641,203,471.641,199,475.641,203,471.641,207,480.641,203" style="stroke: #A80036; stroke-width: 1.0;"/><text fill="#000000" font-family="sans-serif" font-size="13" lengthAdjust="spacingAndGlyphs" textLength="70" x="338" y="181.0669">[shepherd]</text><text fill="#000000" font-family="sans-serif" font-size="13" lengthAdjust="spacingAndGlyphs" textLength="179" x="283.5" y="196.1997">Enter Final Comment Period</text><!--link draft to FCP--><path d="M269.941,227.588 C291.76,231.92 314.797,235.757 336.5,238 C383.366,242.844 434.296,239.956 480.641,234.174 " fill="none" id="draft-FCP-1" style="stroke: #A80036; stroke-width: 1.0;"/><polygon fill="#A80036" points="265.012,226.597,273.047,232.2925,269.9139,227.5825,274.6239,224.4494,265.012,226.597" style="stroke: #A80036; stroke-width: 1.0;"/><text fill="#000000" font-family="sans-serif" font-size="13" lengthAdjust="spacingAndGlyphs" textLength="70" x="338" y="219.0669">[shepherd]</text><text fill="#000000" font-family="sans-serif" font-size="13" lengthAdjust="spacingAndGlyphs" textLength="71" x="337.5" y="234.1997">Cancel FCP</text><!--link draft to close_join--><path d="M256.661,249.129 C320.153,281.816 399.64,322.737 428.18,337.43 " fill="none" id="draft-close_join" style="stroke: #A80036; stroke-width: 1.0;"/><polygon fill="#A80036" points="432.901,339.86,426.7298,332.1843,428.4555,337.5715,423.0682,339.2972,432.901,339.86" style="stroke: #A80036; stroke-width: 1.0;"/><!--link FCP to close_join--><path d="M581.908,242.166 C535.118,275.181 471.418,320.126 448.061,336.607 " fill="none" id="FCP-close_join" style="stroke: #A80036; stroke-width: 1.0;"/><polygon fill="#A80036" points="443.71,339.677,453.3703,337.7588,447.7961,336.7953,448.7596,331.2211,443.71,339.677" style="stroke: #A80036; stroke-width: 1.0;"/><!--link draft to post_join--><path d="M217.701,249.129 C252.084,280.992 294.912,320.678 311.736,336.269 " fill="none" id="draft-post_join" style="stroke: #A80036; stroke-width: 1.0;"/><polygon fill="#A80036" points="315.432,339.694,311.5499,330.6425,311.7647,336.2953,306.112,336.5102,315.432,339.694" style="stroke: #A80036; stroke-width: 1.0;"/><!--link FCP to post_join--><path d="M548.959,242.166 C471.742,276.025 365.908,322.432 330.827,337.814 " fill="none" id="FCP-post_join" style="stroke: #A80036; stroke-width: 1.0;"/><polygon fill="#A80036" points="326.177,339.853,336.0257,339.9016,330.756,337.8449,332.8127,332.5751,326.177,339.853" style="stroke: #A80036; stroke-width: 1.0;"/><!--link close_join to closed--><path d="M438.499,348.154 C436.016,363.776 424.914,433.623 418.901,471.457 " fill="none" id="close_join-closed" style="stroke: #A80036; stroke-width: 1.0;"/><polygon fill="#A80036" points="418.052,476.797,423.4144,468.536,418.8364,471.8589,415.5135,467.2809,418.052,476.797" style="stroke: #A80036; stroke-width: 1.0;"/><text fill="#000000" font-family="sans-serif" font-size="13" lengthAdjust="spacingAndGlyphs" textLength="63" x="433" y="403.0669">Close RFC</text><!--link post_join to postponed--><path d="M317.733,348.206 C314.932,355.489 308.279,373.897 306,390 C302.075,417.727 303.874,449.928 305.98,471.496 " fill="none" id="post_join-postponed" style="stroke: #A80036; stroke-width: 1.0;"/><polygon fill="#A80036" points="306.518,476.742,309.5763,467.38,306.0065,471.7682,301.6182,468.1984,306.518,476.742" style="stroke: #A80036; stroke-width: 1.0;"/><text fill="#000000" font-family="sans-serif" font-size="13" lengthAdjust="spacingAndGlyphs" textLength="88" x="307" y="403.0669">Postpone RFC</text><!--link FCP to active--><path d="M636,242.174 C636,296.496 636,395.814 636,452.777 " fill="none" id="FCP-active" style="stroke: #A80036; stroke-width: 1.0;"/><polygon fill="#A80036" points="636,457.817,640,448.817,636,452.817,632,448.817,636,457.817" style="stroke: #A80036; stroke-width: 1.0;"/><text fill="#000000" font-family="sans-serif" font-size="13" lengthAdjust="spacingAndGlyphs" textLength="70" x="637" y="341.0669">[shepherd]</text><text fill="#000000" font-family="sans-serif" font-size="13" lengthAdjust="spacingAndGlyphs" textLength="68" x="638" y="356.1997">Merge RFC</text><!--link active to active--><path d="M773.304,485.062 C793.985,486.903 808,490.882 808,497 C808,502.592 796.29,506.398 778.483,508.416 " fill="none" id="active-active" style="stroke: #A80036; stroke-width: 1.0;"/><polygon fill="#A80036" points="773.304,508.938,782.6598,512.0152,778.2788,508.4365,781.8574,504.0555,773.304,508.938" style="stroke: #A80036; stroke-width: 1.0;"/><text fill="#000000" font-family="sans-serif" font-size="13" lengthAdjust="spacingAndGlyphs" textLength="93" x="817" y="494.0669">Minor changes</text><text fill="#000000" font-family="sans-serif" font-size="13" lengthAdjust="spacingAndGlyphs" textLength="99" x="814" y="509.1997">through new PR</text><!--link postponed to draft--><path d="M284.186,476.984 C255.13,453.147 208.162,409.374 186,360 C171.183,326.989 167.165,286.241 166.728,254.669 " fill="none" id="postponed-draft" style="stroke: #A80036; stroke-width: 1.0;"/><polygon fill="#A80036" points="166.687,249.285,162.7565,258.3156,166.7256,254.2849,170.7563,258.2539,166.687,249.285" style="stroke: #A80036; stroke-width: 1.0;"/><text fill="#000000" font-family="sans-serif" font-size="13" lengthAdjust="spacingAndGlyphs" textLength="73" x="187" y="348.5669">Re-open PR</text><!--link postponed to *end--><path d="M327.464,517.161 C349.742,540.2799 386.442,578.3639 404.415,597.0155 " fill="none" id="postponed-*end" style="stroke: #A80036; stroke-width: 1.0;"/><polygon fill="#A80036" points="408.157,600.899,404.7918,591.6429,404.6874,597.2988,399.0315,597.1943,408.157,600.899" style="stroke: #A80036; stroke-width: 1.0;"/><!--link closed to *end--><path d="M415,517.161 C415,538.9911 415,574.1644 415,593.7211 " fill="none" id="closed-*end" style="stroke: #A80036; stroke-width: 1.0;"/><polygon fill="#A80036" points="415,598.7989,419,589.7989,415,593.7989,411,589.7989,415,598.7989" style="stroke: #A80036; stroke-width: 1.0;"/><!--link active to *end--><path d="M559.635,536.0098 C511.679,559.8793 454.211,588.4832 428.541,601.2601 " fill="none" id="active-*end" style="stroke: #A80036; stroke-width: 1.0;"/><polygon fill="#A80036" points="423.843,603.5984,433.6826,603.1705,428.3195,601.3711,430.1189,596.0081,423.843,603.5984" style="stroke: #A80036; stroke-width: 1.0;"/><!--
@startuml
hide empty description
skinparam shadowing false

[*] -down-> long1 : [author]\nSubmit a PR to /grin-rfcs

state "PR is Open" as long1 {
draft : * tag sub-team
draft : * assign shepherd
draft : * feedback from community
draft : * iterate on proposal
draft -right-> FCP : [shepherd]\nEnter Final Comment Period
FCP: * include disposition to merge/close/postpone
FCP: * final feedback from community
FCP: * final touches on proposal
FCP -left-> draft : [shepherd]\nCancel FCP
}

state close_join <<join>>

draft - -> close_join 
FCP - -> close_join

state post_join <<join>>

draft - -> post_join 
FCP - -> post_join



state "PR is Closed" as long2 {

close_join -down-> closed : Close RFC
post_join -down-> postponed : Postpone RFC

}

state "PR is Merged" as long3 {

FCP -right-> active : [shepherd]\nMerge RFC
active - -> active : Minor changes\nthrough new PR
active: * assign RFC number
active: * create tracking issue in relevant repo
active: * make note if superseded by a new RFC 
}


postponed - -> draft : Re-open PR 

postponed - -> [*]
closed - -> [*]
active - -> [*]
@enduml

PlantUML version 1.2019.07(Mon Jun 24 19:59:20 UTC 2019)
(GPL source distribution)
Java Runtime: Java(TM) SE Runtime Environment
JVM: Java HotSpot(TM) 64-Bit Server VM
Java Version: 1.7.0_25-b15
Operating System: Linux
Default Encoding: UTF-8
Language: en
Country: US
--></g></svg>