<?xml version="1.0" encoding="UTF-8"?>
<svg width="162px" height="155px" viewBox="0 0 162 155" version="1.1" xmlns="http://www.w3.org/2000/svg" xmlns:xlink="http://www.w3.org/1999/xlink">
    <!-- Generator: Sketch 47.1 (45422) - http://www.bohemiancoding.com/sketch -->
    <title>black_bubble</title>
    <desc>Created with Sketch.</desc>
    <defs></defs>
    <g id="TH3BUILD" stroke="none" stroke-width="1" fill="none" fill-rule="evenodd">
        <g id="MONO-LOGO-on-White" transform="translate(-219.000000, -48.000000)" fill="#323232">
            <path d="M243.567334,170.549908 C233.781215,157.722957 227.971222,141.712113 227.971222,124.347238 C227.971222,82.1818227 262.227881,48 304.485611,48 C346.743341,48 381,82.1818227 381,124.347238 C381,163.246653 351.844641,195.351346 314.148852,200.091422 C287.544423,205.527785 209.403561,202.8504 219.977182,196.136432 C228.208292,190.909895 236.071676,182.381054 243.567334,170.549908 Z M294.712749,115.628444 L294.712749,115.628444 C292.325548,117.762606 291.821577,121.305535 293.518972,124.020718 L294.787718,126.05025 C295.658729,127.443535 297.317555,128.131055 298.918811,127.762431 L298.918811,127.762431 C299.926785,127.530386 300.891547,127.414365 301.813124,127.414365 C304.232263,127.414365 306.363378,128.139496 308.206532,129.589779 C310.049686,131.040062 310.971249,133.273466 310.971249,136.290055 C310.971249,137.450282 310.769657,138.581486 310.366467,139.683702 C309.963277,140.785917 309.358502,141.74309 308.552122,142.555249 C307.745742,143.367407 306.752182,144.020025 305.571411,144.513122 C304.390641,145.006218 303.051494,145.252762 301.553932,145.252762 C298.616405,145.252762 296.2405,144.281087 294.426145,142.337707 C293.249371,141.077248 292.3043,138.695757 291.590934,135.193234 C291.590848,135.192813 291.590762,135.192393 291.590674,135.191972 C291.556893,135.02968 291.397945,134.925501 291.235653,134.959282 L291.235685,134.959432 L284.89575,136.279032 C284.412283,136.379664 283.942704,136.53819 283.497168,136.751181 C280.434298,138.215402 279.138338,141.885335 280.60256,144.948204 C281.725732,147.297664 283.280869,149.371538 285.26802,151.16989 C287.25517,152.968241 289.616676,154.389498 292.352607,155.433702 C295.088539,156.477906 298.184415,157 301.640329,157 C305.21144,157 308.422511,156.448901 311.27364,155.346685 C314.124769,154.24447 316.543872,152.765203 318.531023,150.90884 C320.518173,149.052477 322.044512,146.891587 323.110085,144.426105 C324.175659,141.960623 324.708437,139.364655 324.708437,136.638122 C324.708437,133.795566 324.262055,131.257608 323.369277,129.024171 C322.4765,126.790735 321.266948,124.876389 319.740586,123.281077 C318.214224,121.685766 316.443095,120.43854 314.427146,119.539365 C313.800057,119.259664 313.007861,118.99996 312.05056,118.760254 C311.653988,118.660954 311.29737,118.442508 311.02874,118.134339 C310.302933,117.301705 310.389533,116.038338 311.222168,115.312531 L311.222169,115.312533 L318.696088,108.79752 C321.363259,106.472548 322.894092,103.107324 322.894092,99.5690608 L322.894092,99.5690608 L322.894092,99.5690608 C322.894092,96.4933534 320.400738,94 317.325031,94 L317.325031,94 L286.259566,94 C283.063714,94 280.472964,96.5907501 280.472964,99.7866022 C280.472964,102.982454 283.063714,105.573204 286.259566,105.573204 L300.722274,105.573204 C301.291563,105.573204 301.833875,105.815811 302.213301,106.240224 C302.949486,107.063695 302.878726,108.328047 302.055255,109.064232 L302.055255,109.064232 L294.712749,115.628444 Z" id="black_bubble"></path>
        </g>
    </g>
</svg>