<svg xmlns="http://www.w3.org/2000/svg" width="244" height="244" clip-rule="evenodd"><metadata id="metadata857">image/svg+xml</metadata><g><title>background</title><rect id="canvas_background" width="582" height="402" x="-1" y="-1" fill="none"/></g><g><title>Layer 1</title><g id="g849" fill="#fff" transform="matrix(1.71091, 0, 0, 1.71091, -86.3194, -95.0155)"><path id="path847" fill="#fff" fill-rule="nonzero" d="m162,88.444725c-2.033997,-4.566002 -3.929001,-13.586998 -9.145004,-15.593002c-6.714996,-2.582001 -10.865997,14.321999 -11.854996,18.593002l-1,0c-1.692993,-7.318001 -3.964996,-17.690002 -12,-20c-3.720001,15.624001 3.886002,32.478996 11,46c7.595993,-3.629997 11.296997,-14.998001 12,-23l1,0l8,24c6.436005,-1.849998 8.675003,-8.219002 10.998993,-14c4.989014,-12.407997 9.175003,-27.667999 6.001007,-41.000004c-9.604996,2.720005 -12.526993,16.455006 -15,25.000004m-96,32c8.595001,-4.103996 12.684998,-17.094002 14,-26l1,0c1.016998,4.292999 3.736,15.367996 9.099998,16.079002c6.834,0.903999 10.417,-14.260002 10.900002,-19.079002l1,0c2.179001,7.528999 4.474998,17.32 12,21c2.776001,-11.660004 -0.547997,-24.095001 -4.811996,-35c-1.096001,-2.804001 -3.347,-10.363998 -7.213005,-10.363998c-6.334,0 -9.894997,16.695999 -10.974998,21.363998l-1,0l-8,-24c-14.071999,6.720001 -21.716,42.453003 -16,56m-15,11.999992c10.443001,45.550995 58.612,71.373993 102,52.138c15.791,-7.001007 28.317001,-19.475006 35.539001,-35.138c1.865997,-4.046997 5.531006,-11.371994 3.393997,-16.682007c-2.128006,-5.288979 -22.766998,3.353012 -27.923996,5.610001c-0.723999,0.322006 -1.235001,0.990005 -1.354004,1.774002c0,0 0,0 0,0c-0.169006,1.109009 0.130997,2.238998 0.830002,3.118011c0.697998,0.878998 1.731003,1.426987 2.850006,1.512985c3.780991,0.291 8.664993,0.667007 8.664993,0.667007c-15.686996,30.365005 -58.100998,43.791 -88,19.531998c-6.692001,-5.429001 -12.662003,-11.880005 -16.68,-19.531998c-1.943001,-3.699997 -3.745003,-8.432007 -7.048,-10.970993c-3.173,-2.440002 -7.987,-3.276001 -12.271999,-2.029007z"/></g></g></svg>