<?xml version="1.0" standalone="no"?>
<!DOCTYPE svg PUBLIC "-//W3C//DTD SVG 20010904//EN"
 "http://www.w3.org/TR/2001/REC-SVG-20010904/DTD/svg10.dtd">
<svg version="1.0" xmlns="http://www.w3.org/2000/svg"
 width="162.000000pt" height="162.000000pt" viewBox="0 0 162.000000 162.000000"
 preserveAspectRatio="xMidYMid meet">
<metadata>
Created by potrace 1.11, written by Peter Selinger 2001-2013
</metadata>
<g transform="translate(0.000000,162.000000) scale(0.100000,-0.100000)"
fill="#000000" stroke="none">
<path d="M755 1574 c-73 -15 -162 -37 -170 -42 -5 -4 -12 -7 -15 -7 -3 -1 -32
-15 -66 -32 -200 -104 -345 -292 -397 -519 -8 -33 -14 -100 -15 -149 -1 -147
32 -269 108 -399 22 -37 40 -72 40 -76 0 -29 -159 -206 -213 -238 -37 -22 -30
-35 29 -50 80 -20 195 -27 459 -27 324 0 454 14 597 64 234 83 411 274 480
518 32 112 31 298 -1 403 -81 265 -263 448 -526 530 -67 20 -255 35 -310 24z
m271 -479 c27 -41 6 -93 -61 -151 -30 -26 -52 -51 -49 -56 3 -5 23 -17 45 -28
98 -51 125 -192 53 -286 -93 -124 -338 -101 -395 36 -13 30 -4 67 19 78 9 5
34 12 55 16 33 6 37 5 37 -14 0 -12 13 -35 29 -51 61 -60 161 -21 161 62 0 50
-51 89 -108 83 -42 -5 -72 24 -72 70 0 28 9 42 51 80 65 59 57 70 -49 72 -103
2 -99 1 -117 28 -14 20 -14 29 -4 48 7 13 17 26 23 30 6 4 91 8 188 8 l178 0
16 -25z"/>
</g>
</svg>
